<svg id="Layer_1" xmlns="http://www.w3.org/2000/svg" viewBox="0 0 72 128"><style>.st0{fill:#0080FF;}</style><path class="st0" d="M62.5 31.7H47.4L55 44.9l7.5-13.2zm-18.9 0H28.4L36 44.9l7.6-13.2zm-19 0H9.5l7.6 13.1c0 .1 7.5-13.1 7.5-13.1zm-17 1.1L0 45.9h15.2L7.6 32.8zm18.9 0l-7.6 13.1h15.2l-7.6-13.1zm19 0l-7.6 13.1h15.2l-7.6-13.1zm18.9 0l-7.6 13.1H72l-7.6-13.1zM72 48.1H56.8l7.6 13.1L72 48.1zm-18.9 0H37.9l7.6 13.1 7.6-13.1zm-19 0H18.9l7.6 13.1 7.6-13.1zm-18.9 0H0l7.6 13.1 7.6-13.1zM36 49.2l-7.6 13.1h15.2L36 49.2zM7.6 0L0 13.1h15.2L7.6 0zm56.8 0l-7.6 13.1H72L64.4 0zM72 15.3H56.8l7.6 13.1L72 15.3zm-56.8 0H0l7.6 13.1 7.6-13.1zm1.9 1.1L9.5 29.5h15.2l-7.6-13.1zm37.9 0l-7.6 13.1h15.2L55 16.4zm7.5 48.1H47.4L55 77.7l7.5-13.2zm-18.9 0H28.4L36 77.7l7.6-13.2zm-19 0H9.5l7.6 13.1 7.5-13.1zm1.9 1.1l-7.6 13.1h15.2l-7.6-13.1zm19 0l-7.6 13.1h15.2l-7.6-13.1zM53.1 81H37.9l7.6 13.1L53.1 81zm-19 0H18.9l7.6 13.1L34.1 81zm1.9 1l-7.6 13.1h15.2C43.6 95.2 36 82 36 82zm7.6 15.4H28.4l7.6 13.1 7.6-13.1zm-17.1 1.1l-7.6 13.1h15.2l-7.6-13.1zm19 0l-7.6 13.1h15.2l-7.6-13.1zm7.6 15.3H37.9l7.6 13.1 7.6-13.1zm-19 0H18.9l7.6 13.1 7.6-13.1zm1.9 1.1L28.4 128h15.2L36 114.9z"/></svg>