<svg viewBox="0 0 192 192" xmlns="http://www.w3.org/2000/svg" fill-rule="evenodd" clip-rule="evenodd" stroke-linejoin="round" stroke-miterlimit="1.414"><path d="M135.79 47.587h-22.736l11.373 19.692 11.364-19.693zM107.368 47.587h-22.74L96.005 67.28l11.364-19.693zM78.945 47.587H56.21L67.58 67.28l11.365-19.693zM53.367 49.228l-11.37 19.69H64.73L53.368 49.23zM81.793 49.228l-11.376 19.69h22.74L81.792 49.23zM110.216 49.228l-11.373 19.69h22.736l-11.364-19.69zM138.64 49.228l-11.375 19.69h22.738L138.64 49.23zM150.003 72.2h-22.738l11.374 19.697L150.002 72.2zM121.58 72.2H98.842l11.373 19.697L121.58 72.2zM93.156 72.2h-22.74l11.377 19.697L93.156 72.2zM64.73 72.2H41.998l11.37 19.697L64.73 72.2zM96.004 73.845L84.63 93.537h22.738L96.004 73.845zM53.367 0l-11.37 19.69H64.73L53.368 0zM138.64 0l-11.375 19.69h22.738L138.64 0zM150.003 22.97h-22.738l11.374 19.695 11.363-19.695zM64.73 22.97H41.998l11.37 19.695L64.73 22.97zM67.58 24.616l-11.37 19.69h22.735L67.58 24.616zM124.427 24.616l-11.373 19.69h22.737l-11.363-19.69zM135.79 96.815h-22.736l11.373 19.696 11.364-19.695zM107.368 96.815h-22.74l11.376 19.696 11.364-19.695zM78.945 96.815H56.21l11.37 19.696 11.365-19.695zM81.793 98.46l-11.376 19.687h22.74L81.792 98.46zM110.216 98.46l-11.373 19.687h22.736L110.215 98.46zM121.58 121.438H98.842l11.373 19.686 11.363-19.686zM93.156 121.438h-22.74l11.377 19.686 11.363-19.686zM96.004 123.073L84.63 142.77h22.738l-11.364-19.697zM107.368 146.05h-22.74l11.376 19.696 11.364-19.696zM81.793 147.686l-11.376 19.696h22.74l-11.364-19.696zM110.216 147.686l-11.373 19.696h22.736l-11.364-19.696zM121.58 170.663H98.842l11.373 19.692 11.363-19.692zM93.156 170.663h-22.74l11.377 19.692 11.363-19.692zM96.004 172.31L84.63 192h22.738l-11.364-19.69z" fill="#0080ff" fill-rule="nonzero"/></svg>