<svg viewBox="0 0 106 39" xmlns="http://www.w3.org/2000/svg" fill-rule="evenodd" clip-rule="evenodd" stroke-linejoin="round" stroke-miterlimit="1.414"><g fill-rule="nonzero"><path d="M97.802 9.666h-4.62l2.312 4 2.308-4zM92.028 9.666H87.41l2.31 4 2.308-4zM86.255 9.666h-4.618l2.31 4 2.308-4zM81.06 10l-2.31 4h4.618l-2.31-4zM86.833 10l-2.31 4h4.62l-2.31-4zM92.607 10l-2.31 4h4.618l-2.308-4zM98.38 10l-2.31 4h4.62l-2.31-4zM100.69 14.666h-4.62l2.31 4 2.31-4zM94.915 14.666h-4.618l2.31 4 2.308-4zM89.142 14.666h-4.62l2.31 4 2.31-4zM83.368 14.666H78.75l2.31 4 2.308-4zM89.72 15l-2.31 4h4.618l-2.308-4zM81.06 0l-2.31 4h4.618l-2.31-4zM98.38 0l-2.31 4h4.62l-2.31-4zM100.69 4.666h-4.62l2.31 4 2.31-4zM83.368 4.666H78.75l2.31 4 2.308-4zM83.946 5l-2.31 4h4.62l-2.31-4zM95.494 5l-2.31 4H97.8l-2.308-4zM97.802 19.666h-4.62l2.312 4 2.308-4zM92.028 19.666H87.41l2.31 4 2.308-4zM86.255 19.666h-4.618l2.31 4 2.308-4zM86.833 20l-2.31 4h4.62l-2.31-4zM92.607 20l-2.31 4h4.618l-2.308-4zM94.915 24.667h-4.618l2.31 4 2.308-4zM89.142 24.667h-4.62l2.31 4 2.31-4zM89.72 25l-2.31 4h4.618l-2.308-4zM92.028 29.667H87.41l2.31 4 2.308-4zM86.833 30l-2.31 4h4.62l-2.31-4zM92.607 30l-2.31 4h4.618l-2.308-4zM94.915 34.666h-4.618l2.31 4 2.308-4zM89.142 34.666h-4.62l2.31 4 2.31-4zM89.72 35l-2.31 4h4.618l-2.308-4z" fill="#0080ff"/><path d="M9.117 20.247v16.547c1.203-.797 2.258-1.945 3.164-3.445.907-1.486 1.36-3.11 1.36-4.876 0-1.64-.42-3.196-1.265-4.664-.875-1.5-1.96-2.688-3.258-3.563zm0-16.758v16.593c1.016-.594 2.024-1.672 3.024-3.234.985-1.58 1.477-3.306 1.477-5.18 0-3.282-1.5-6.01-4.5-8.18zm8.203 33.49H2.953V3.28H17.11c1.796 2.47 2.695 5.29 2.695 8.46 0 3.08-.828 5.892-2.485 8.44 1.657 2.78 2.485 5.624 2.485 8.53 0 1.516-.258 3.07-.774 4.664-.546 1.625-1.116 2.828-1.71 3.61zM35.063 3.583V36.98h-6.165V3.584c-1.984 1.72-3.68 3.766-5.086 6.14L21.445 3.28h20.977l-2.25 6.446c-2.094-3.313-3.797-5.36-5.11-6.14zM62.977 30.864l3.257 6.117H49.078c-1.53-1.545-2.922-3.858-4.172-6.936-1.25-3.047-1.875-6.313-1.875-9.797 0-3.812.626-7.22 1.876-10.22 1.25-3 2.547-5.25 3.89-6.75h17.157l-2.766 6.048c-2.234-3.234-4.148-5.148-5.742-5.742-1.922 1.125-3.734 3.22-5.437 6.28-1.735 3.11-2.602 6.525-2.602 10.243 0 3.83.906 7.33 2.72 10.5.905 1.58 1.796 2.868 2.67 3.868.876 1 1.76 1.718 2.65 2.156.843-.375 1.71-1.024 2.6-1.945.89-.922 1.868-2.196 2.93-3.82z" fill="#004080"/></g></svg>